<?xml version="1.0" standalone="no"?>
<!DOCTYPE svg PUBLIC "-//W3C//DTD SVG 20010904//EN"
 "http://www.w3.org/TR/2001/REC-SVG-20010904/DTD/svg10.dtd">
<svg version="1.0" xmlns="http://www.w3.org/2000/svg"
 width="500.000000pt" height="500.000000pt" viewBox="0 0 500.000000 500.000000"
 preserveAspectRatio="xMidYMid meet">

<g transform="translate(0.000000,500.000000) scale(0.100000,-0.100000)"
fill="#000000" stroke="none">
<path d="M2959 3621 c-24 -25 -29 -38 -29 -78 0 -46 -3 -51 -64 -112 -52 -52
-69 -63 -88 -58 -12 3 -60 16 -106 28 l-84 22 -26 -27 -27 -26 30 0 c43 0 167
-28 179 -40 7 -7 -13 -34 -64 -85 l-73 -74 27 -7 c25 -6 36 1 101 66 84 83 85
84 177 23 137 -91 242 -216 298 -355 20 -50 26 -56 42 -47 25 14 23 29 -18
112 -68 140 -216 297 -330 352 -18 8 -34 21 -37 29 -3 8 17 36 49 67 50 49 57
53 97 51 81 -5 129 67 93 136 -31 60 -99 71 -147 23z m109 -17 c27 -18 30 -69
5 -96 -21 -24 -68 -23 -93 2 -58 58 20 142 88 94z"/>
<path d="M2135 3332 c-110 -61 -164 -109 -527 -470 -336 -334 -379 -374 -401
-368 -56 14 -117 -35 -117 -94 0 -36 28 -77 61 -89 67 -23 133 39 122 114 -4
28 13 47 226 260 144 143 234 226 240 220 5 -6 1 -32 -10 -65 -11 -30 -22 -95
-25 -145 l-5 -90 25 28 c19 21 26 39 26 70 0 44 26 144 55 212 52 121 168 255
290 337 39 25 83 60 99 77 26 27 27 31 10 31 -10 0 -41 -13 -69 -28z m-899
-898 c22 -33 9 -74 -30 -93 -25 -12 -31 -11 -55 6 -33 25 -41 81 -15 100 31
23 81 16 100 -13z"/>
<path d="M3749 2865 c-32 -18 -53 -66 -46 -103 5 -26 -12 -46 -206 -240 -117
-117 -216 -212 -220 -212 -12 0 -8 34 9 81 17 49 34 208 23 215 -18 11 -46
-48 -52 -109 -7 -77 -53 -206 -101 -285 -53 -88 -147 -184 -234 -240 -74 -48
-140 -107 -131 -116 7 -8 102 39 167 80 33 22 212 192 419 398 l362 360 44 -3
c88 -4 140 90 85 154 -28 32 -83 41 -119 20z m91 -35 c11 -11 20 -31 20 -45 0
-14 -9 -34 -20 -45 -11 -11 -31 -20 -45 -20 -14 0 -34 9 -45 20 -11 11 -20 31
-20 45 0 14 9 34 20 45 11 11 31 20 45 20 14 0 34 -9 45 -20z"/>
<path d="M1757 2365 c-23 -17 -22 -27 16 -104 74 -151 181 -270 305 -341 34
-19 63 -41 66 -47 3 -7 -26 -43 -65 -80 -66 -64 -74 -68 -127 -74 -63 -8 -92
-32 -92 -79 0 -48 18 -79 55 -97 33 -16 37 -16 70 0 43 20 68 66 60 110 -6 30
0 38 78 115 l84 84 45 -15 c24 -9 72 -21 107 -27 54 -10 66 -9 87 5 14 9 22
19 20 24 -3 4 -44 14 -91 21 -132 21 -134 25 -47 113 68 68 72 75 51 80 -30 8
-43 -1 -118 -77 l-64 -65 -41 21 c-159 81 -286 219 -359 393 -20 47 -24 52
-40 40z m238 -690 c29 -28 31 -51 9 -83 -18 -26 -69 -30 -99 -8 -27 19 -24 74
4 98 31 25 57 23 86 -7z"/>
</g>
</svg>
